<?xml version="1.0" encoding="UTF-8" standalone="no"?>
<!-- Created with Inkscape (http://www.inkscape.org/) -->

<svg
   width="1080"
   height="1080"
   viewBox="0 0 285.74999 285.75"
   version="1.1"
   id="svg1"
   xml:space="preserve"
   inkscape:version="1.4.2 (ebf0e94, 2025-05-08)"
   sodipodi:docname="logo.svg"
   inkscape:export-filename="logo.png"
   inkscape:export-xdpi="300"
   inkscape:export-ydpi="300"
   xmlns:inkscape="http://www.inkscape.org/namespaces/inkscape"
   xmlns:sodipodi="http://sodipodi.sourceforge.net/DTD/sodipodi-0.dtd"
   xmlns="http://www.w3.org/2000/svg"
   xmlns:svg="http://www.w3.org/2000/svg"><sodipodi:namedview
     id="namedview1"
     pagecolor="#ffffff"
     bordercolor="#000000"
     borderopacity="0.25"
     inkscape:showpageshadow="2"
     inkscape:pageopacity="0.0"
     inkscape:pagecheckerboard="true"
     inkscape:deskcolor="#d1d1d1"
     inkscape:document-units="px"
     inkscape:zoom="0.44532302"
     inkscape:cx="404.20098"
     inkscape:cy="507.49678"
     inkscape:window-width="1366"
     inkscape:window-height="699"
     inkscape:window-x="0"
     inkscape:window-y="32"
     inkscape:window-maximized="1"
     inkscape:current-layer="layer1"
     inkscape:antialias-rendering="true" /><defs
     id="defs1" /><g
     inkscape:label="Layer 1"
     inkscape:groupmode="layer"
     id="layer1"><circle
       style="fill:#1f2933;fill-opacity:1;stroke:none;stroke-width:0.351596;stroke-opacity:1"
       id="path1"
       cx="142.875"
       cy="142.875"
       r="142.875" /><path
       style="font-size:146.624px;font-family:'Arial Black';-inkscape-font-specification:'Arial Black, ';text-align:center;text-anchor:middle;fill:#f5c16c;stroke-width:0.162916"
       d="m 146.2041,157.33705 v -21.83609 h 50.11562 v 44.74609 q -14.39034,9.80835 -25.48737,13.38803 -11.02544,3.5081 -26.20331,3.5081 -18.68597,0 -30.49894,-6.37185 -11.74137,-6.37184 -18.256404,-18.97234 -6.443437,-12.6005 -6.443437,-28.92387 0,-17.1825 7.087781,-29.8546 7.08778,-12.74368 20.76219,-19.330308 10.66746,-5.083156 28.70909,-5.083156 17.39728,0 25.98853,3.150125 8.66284,3.150125 14.31875,9.808339 5.7275,6.58663 8.59125,16.75294 l -31.28647,5.58431 q -1.93303,-5.94228 -6.58662,-9.0924 -4.582,-3.15013 -11.74138,-3.15013 -10.66747,0 -17.03931,7.44575 -6.30025,7.37416 -6.30025,23.41116 0,17.03931 6.37184,24.34187 6.44344,7.30256 17.89844,7.30256 5.44112,0 10.38109,-1.57506 4.93997,-1.57506 11.31182,-5.36953 v -9.87994 z"
       id="text1"
       aria-label="G" /><g
       id="g60"
       transform="matrix(0.86496016,0,0,0.86496016,223.39545,-71.3791)"><g
         id="g61"
         transform="translate(3.6223621,49.843801)"><path
           style="fill:#000000"
           d="m -155.90938,158.42276 c -1.22022,-1.58359 -3.02287,-3.93622 -4.00589,-5.22806 -1.70644,-2.24251 -1.97684,-2.28012 -5.97533,-0.83121 -5.80779,2.10455 -11.71199,1.96624 -19.56153,-0.45823 -13.18328,-4.0719 -21.79981,-12.60008 -22.61074,-22.37892 -0.53026,-6.39418 1.15396,-10.59718 6.56635,-16.38644 2.10335,-2.24981 3.70956,-5.28131 4.16057,-7.85252 1.67189,-9.531449 9.03875,-18.260205 17.83432,-21.131304 3.04144,-0.992804 3.16498,-1.288133 3.89744,-9.316552 1.46353,-16.041818 8.57468,-24.403733 22.6861,-26.676311 11.37713,-1.832234 23.76311,1.994156 29.31918,9.057552 l 2.13522,2.714499 6.57912,-1.611474 c 10.57385,-2.589933 18.462097,-0.15002 25.284867,7.820853 10.41133,12.163288 8.74767,31.63554 -3.45071,40.388977 -3.54688,2.5452 -4.02941,3.36519 -3.57944,6.08278 0.94021,5.67852 3.67017,13.51842 5.69986,16.36884 4.13065,5.80097 3.05024,6.60211 -10.322697,7.65452 -15.81603,1.24468 -39.91462,11.47271 -43.42776,18.43181 -3.42215,6.77889 -7.62196,8.03229 -11.22893,3.35119 z m 6.24732,-5.08505 c 0,-6.48223 28.19736,-18.97702 47.42955,-21.01694 5.052387,-0.5359 5.949247,-0.92606 5.336907,-2.32174 -2.30846,-5.26158 -4.540457,-12.49824 -4.570147,-14.81748 -0.0513,-4.01114 -1.94885,-5.18425 -8.35785,-5.16719 -14.99242,0.0399 -29.66768,6.62218 -42.19421,18.92523 -4.46285,4.38324 -8.11427,8.75985 -8.11427,9.7258 0,1.74909 5.5844,13.61222 7.57005,16.08133 1.25299,1.55806 2.89997,0.75784 2.89997,-1.40901 z m -17.25301,-6.2511 c 6.90411,-3.27621 5.98819,-8.50788 -2.07454,-11.84969 -3.06411,-1.27 -6.44723,-3.28702 -7.51806,-4.48227 -1.5916,-1.77653 -1.22398,-1.68517 2.01407,0.50051 2.17857,1.47052 5.42927,2.99616 7.22379,3.3903 3.03013,0.66553 3.73335,0.20437 9.86329,-6.46821 3.6303,-3.95166 6.62235,-7.68562 6.649,-8.2977 0.0266,-0.61208 -1.40706,-2.49668 -3.18602,-4.18801 -1.77897,-1.69133 -3.9662,-4.4886 -4.86053,-6.21615 -1.44327,-2.78792 -1.02587,-2.58195 3.71312,1.83225 2.93655,2.7353 6.24711,4.97327 7.35681,4.97327 1.10969,0 5.72394,-1.85508 10.25389,-4.12239 7.18044,-3.59392 8.66191,-4.83543 11.5567,-9.68477 3.91773,-6.562961 5.52528,-11.993956 5.67525,-19.173429 l 0.10935,-5.235014 1.52637,4.711512 c 1.81536,5.60358 1.22883,11.8698 -1.73907,18.579221 -1.16255,2.62814 -1.97737,4.91481 -1.8107,5.08147 0.16667,0.16667 2.9983,-0.0627 6.29252,-0.50976 7.02598,-0.95344 16.189767,-6.659759 20.220317,-12.591247 1.38908,-2.044216 2.5256,-3.091178 2.5256,-2.326583 0,2.31453 -4.07311,7.288286 -9.131487,11.15065 l -4.78067,3.65031 h 3.08816 c 3.68421,0 9.079107,-3.75553 12.694717,-8.837132 5.54382,-7.791616 4.01064,-20.735232 -3.36444,-28.40376 -6.976657,-7.254246 -14.851677,-8.141294 -25.166557,-2.834777 l -4.14973,2.134838 -1.78835,-3.994396 c -3.64271,-8.136267 -16.0122,-12.82142 -27.53491,-10.429314 -11.93545,2.47779 -18.08584,12.102745 -17.14775,26.835114 l 0.42398,6.658584 -5.54093,1.610793 c -9.54687,2.77535 -16.98678,11.58021 -17.04429,20.17129 -0.0175,2.60808 -0.91784,4.22043 -3.74099,6.69919 -5.26233,4.62039 -7.09166,8.63859 -6.46478,14.20021 1.39068,12.33808 23.73063,23.21937 35.85687,17.46509 z"
           id="path58" /><path
           style="fill:#ffffff;fill-opacity:1;stroke:none;stroke-width:0.302416;stroke-opacity:1"
           d="m -668.91906,561.17229 c -37.98926,-4.55658 -74.60212,-25.4946 -90.02225,-51.48157 -4.9029,-8.26267 -6.6272,-14.27659 -7.01902,-24.48059 -0.73353,-19.10321 3.67958,-28.29242 22.63515,-47.13215 13.56606,-13.48315 14.61584,-15.31562 15.69101,-27.38988 1.84818,-20.75519 8.81828,-35.72625 23.71297,-50.93303 12.64575,-12.91073 25.90183,-20.36398 47.69562,-26.81694 7.4215,-2.19745 13.64152,-4.14325 13.82228,-4.32401 0.18076,-0.18076 -0.0849,-6.41082 -0.59043,-13.84457 -1.34619,-19.79712 -0.56576,-40.13006 1.95076,-50.82411 7.8312,-33.27892 28.01676,-53.62551 60.84795,-61.33335 7.86843,-1.84728 10.59924,-2.0907 23.69597,-2.11224 11.06327,-0.0182 16.58929,0.33425 21.87531,1.39518 21.50462,4.31606 40.13251,14.2498 51.05348,27.22542 4.29197,5.09945 7.09945,10.08594 12.58278,22.34887 l 2.42601,5.42552 12.07271,-6.04643 c 21.15191,-10.59361 31.48205,-13.89713 45.65231,-14.59936 19.06993,-0.94505 35.27637,5.86564 51.04079,21.44967 26.8336,26.52656 35.0021,70.62687 18.82482,101.63198 -5.82469,11.16349 -17.59717,23.73864 -29.64228,31.66333 -9.70303,6.38379 -15.36808,8.27704 -24.76693,8.27704 h -7.67452 l 12.25508,-9.40168 c 20.53067,-15.75042 35.86817,-32.80689 38.4703,-42.7819 1.91543,-7.34264 -0.82489,-5.75882 -9.4497,5.46163 -7.5123,9.77312 -10.26824,12.70908 -17.88869,19.05707 -20.56426,17.13048 -42.49681,26.90695 -65.61168,29.24649 -4.62082,0.46769 -10.1118,1.03569 -12.20217,1.26221 -3.19339,0.34606 -3.80068,0.19644 -3.80068,-0.9364 0,-0.74155 2.71949,-8.12843 6.0433,-16.41528 8.38611,-20.90804 10.02758,-27.62555 10.54637,-43.15969 0.48371,-14.48365 -0.353,-19.86376 -5.6381,-36.2533 -3.9451,-12.23411 -4.34997,-11.80864 -4.47723,4.70497 -0.23477,30.46492 -6.11342,51.38434 -21.86203,77.797 -9.39526,15.75716 -17.43687,22.60493 -40.11224,34.1573 -21.85366,11.13374 -38.82108,17.76837 -43.05987,16.83737 -1.31176,-0.2881 -5.50704,-2.61845 -9.32283,-5.17854 -6.88894,-4.62192 -9.45808,-6.74149 -24.47807,-20.19472 -4.29913,-3.85069 -8.14238,-7.00125 -8.54055,-7.00125 -1.30072,0 -0.76563,2.36361 1.59015,7.02407 3.35415,6.63551 8.3681,13.13212 18.00542,23.32978 10.24627,10.842 13.03528,15.11642 11.62215,17.81203 -4.90803,9.36223 -41.61058,49.3384 -48.74467,53.09234 -7.29205,3.83708 -22.2262,-0.708 -39.78777,-12.10907 -11.81613,-7.6711 -13.76349,-8.15853 -8.62883,-2.15982 3.86416,4.51441 13.03824,10.20339 28.5342,17.6945 19.10627,9.23641 25.4834,15.53518 25.4834,25.17026 0,5.94727 -3.13636,10.54168 -10.56967,15.48333 -11.25946,7.48527 -28.85155,11.20828 -44.24008,9.36252 z"
           id="path59"
           transform="scale(0.26458333)" /><path
           style="fill:#ffffff;fill-opacity:1;stroke:none;stroke-width:0.302416;stroke-opacity:1"
           d="m -576.03325,584.84055 c -4.75188,-5.6473 -18.49644,-32.54639 -24.90717,-48.74513 -4.73723,-11.9701 -4.6797,-12.66448 1.753,-21.1575 6.38134,-8.42524 27.70211,-30.49431 38.61716,-39.97253 33.85672,-29.39992 72.31185,-48.61307 111.44064,-55.67855 19.42569,-3.5077 43.82185,-4.07196 53.22121,-1.23097 4.61113,1.39373 8.51435,4.28332 10.20683,7.55621 0.6104,1.18037 1.48946,5.54827 1.95348,9.70644 1.32456,11.86952 8.8443,36.98245 15.74886,52.59489 2.48088,5.60972 2.43478,7.07568 -0.26631,8.46736 -2.23536,1.15172 -4.86313,1.60655 -26.20466,4.53563 -36.50875,5.01076 -81.71064,19.14929 -120.02137,37.54104 -32.73125,15.71323 -51.60918,31.04191 -51.60918,41.9061 0,6.42619 -6.01211,9.1361 -9.93249,4.47701 z"
           id="path60"
           transform="scale(0.26458333)" /></g><g
         style="fill:#000000"
         id="g62"
         transform="matrix(0.64276777,0,0,0.64276777,-327.63892,118.73553)" /></g><path
       style="fill:#ffffff;fill-opacity:1;stroke-width:0.694997"
       d="m 34.737296,111.98758 c 0.283297,-0.11614 1.171095,-0.48163 1.972913,-0.81215 2.955623,-1.21836 6.927556,-1.91675 10.460177,-1.83925 12.692559,0.27846 23.512253,9.27708 26.162957,21.75941 0.956629,4.50482 0.651234,9.79581 -0.813174,14.08811 -3.687668,10.80889 -13.016253,18.02672 -24.255387,18.76719 -4.935673,0.32518 -9.423751,-0.59441 -13.998008,-2.86812 -10.592705,-5.26531 -16.564133,-16.88341 -14.732817,-28.66441 1.000944,-6.43917 4.404098,-12.47003 9.411589,-16.67866 1.208096,-1.01535 4.813076,-3.35081 5.79175,-3.75212 z m -2.449206,7.56863 c -8.324113,6.95808 -10.43061,18.85229 -5.003545,28.25225 8.111915,14.05025 28.11704,14.95868 37.469991,1.7015 6.508182,-9.22491 5.029895,-22.02822 -3.404283,-29.48427 -6.082392,-5.377 -14.762913,-7.05497 -22.36553,-4.32333 -1.888009,0.67837 -5.129212,2.54365 -6.696625,3.85385 z m 5.896019,-1.81706 c 7.913438,-3.45259 17.171676,-1.66105 23.173427,4.48426 8.019732,8.21155 7.785093,21.40082 -0.523861,29.44788 -2.038503,1.97425 -5.711187,4.09468 -8.44019,4.87294 -11.134111,3.17529 -22.657481,-3.21923 -25.769255,-14.29983 -1.85977,-6.62241 -0.219507,-13.96421 4.264191,-19.08645 1.95531,-2.23378 4.745528,-4.30618 7.295688,-5.4188 z m 27.085816,42.88329 c 0.402542,0.68611 4.622411,7.36185 9.377672,14.83485 4.755257,7.47301 8.732968,13.86406 8.839352,14.20234 0.275872,0.87722 0.144295,1.66636 -0.42415,2.5439 -0.452651,0.69878 -0.709981,0.88725 -3.050426,2.23423 -2.147457,1.23583 -2.687766,1.48397 -3.379962,1.55152 -1.288789,0.12579 -2.065803,-0.32661 -2.94708,-1.71591 -0.406649,-0.64107 -3.986801,-7.62818 -7.955867,-15.52686 -3.969066,-7.89871 -7.338606,-14.57279 -7.48787,-14.83132 l -0.271383,-0.47006 2.43577,-1.38959 c 1.339663,-0.76431 2.817456,-1.68011 3.283986,-2.03514 l 0.848202,-0.64553 z m 9.404103,27.69443 c -1.168193,2.07077 1.156468,4.36411 3.217507,3.17417 1.11431,-0.64335 1.462023,-2.03514 0.797196,-3.19102 -0.853297,-1.48352 -3.173778,-1.47379 -4.014703,0.0169 z"
       id="path64"
       sodipodi:nodetypes="sssssssssssssssssssssssscsssccssscccccssss" /><g
       id="g2"
       transform="matrix(-0.31139054,0.12819557,0.12819557,0.31139054,254.55776,97.732624)"
       style="fill:#ffffff;fill-opacity:1"><path
         fill="#000000"
         d="M 33.5,63.2 C 20.6,76.1 10,86.9 10,87.2 c 0,2.6 34.4,38.7 56.9,59.8 17.4,16.2 40.5,36.1 42,36.1 0.2,0 8.4,-8.7 18.1,-19.2 18.5,-19.9 19.2,-20.6 22.1,-19.9 1.4,0.4 5.8,3.9 10.4,8.4 l 3.1,3 6.4,-7.2 c 3.6,-4 6.4,-7.4 6.4,-7.6 0,-0.5 -117.4,-100.9 -118,-100.9 -0.2,0 -11,10.5 -23.9,23.5 z"
         id="path1-1"
         style="fill:#ffffff;fill-opacity:1" /><path
         fill="#000000"
         d="m 171.2,149.6 c -3.5,4 -6.5,7.5 -6.6,7.7 -0.2,0.7 14.7,15.3 21,20.5 3.1,2.5 8.4,6.8 11.8,9.4 12.4,9.5 17.1,13.5 18,15.1 0.6,1 1.2,2.9 1.4,5.2 0.6,5.5 2.3,7.1 8.2,8.3 6.6,1.3 13.1,-0.1 17.2,-3.8 1.1,-1 2.4,-2.6 2.8,-3.7 1.8,-3.9 0.7,-7.3 -3.6,-11.4 -3,-2.8 -63.5,-54.6 -63.8,-54.6 0.1,0.1 -2.9,3.4 -6.4,7.3 z m 11.8,4.7 c 1.3,1.7 1.3,3.7 -0.2,5 -3.4,3.4 -8.5,-1.7 -5.2,-5.2 1.5,-1.5 4.2,-1.5 5.4,0.2 z m 23.4,20.1 c 2,1.8 1.7,5 -0.6,6.2 -1.7,0.9 -3.4,0.5 -4.6,-1 -1.3,-1.7 -1.2,-3.2 0.4,-4.8 1.6,-1.7 3.2,-1.7 4.8,-0.4 z m 24,20.7 c 0.8,0.6 1.1,1.3 1.1,2.8 0,1.5 -0.3,2.2 -1.1,2.8 -1.5,1.3 -3.8,1.2 -5.1,-0.3 -3.3,-3.3 1.4,-8.2 5.1,-5.3 z"
         id="path2"
         style="fill:#ffffff;fill-opacity:1" /></g><g
       id="text64"
       style="font-size:27.7483px;font-family:'Arial Black';-inkscape-font-specification:'Arial Black, ';text-align:center;text-anchor:middle;fill:#ffffff;stroke:#ffffff;stroke-width:1.76389;fill-opacity:1"
       aria-label="Gyeldhoung&#10;Restaurant"><path
         style="font-family:'Comic Sans MS';-inkscape-font-specification:'Comic Sans MS';fill:#ffffff;fill-opacity:1"
         d="m 87.120968,217.2679 q -0.840037,4.15953 -3.536283,6.65254 -2.682697,2.47947 -6.34092,2.47947 -3.333048,0 -4.999572,-1.85621 -1.666524,-1.86976 -1.666524,-5.59573 0,-3.50918 1.652975,-7.2216 1.666524,-3.72597 4.267927,-6.01575 1.734269,-1.53103 3.671772,-1.53103 1.232957,0 3.251754,0.81294 2.465914,0.97552 2.465914,2.15428 0,0.55551 -0.406469,0.98908 -0.40647,0.43357 -0.975527,0.43357 -0.298077,0 -0.840036,-0.33873 -2.072993,-1.26005 -3.495636,-1.26005 -1.016173,0 -2.127189,1.05682 -0.555508,0.52841 -1.598779,1.92395 -3.129813,4.14599 -3.129813,8.99652 0,2.54721 0.785841,3.56338 0.853585,1.11102 3.143362,1.11102 2.425266,0 4.213731,-1.53104 1.883308,-1.62587 2.628501,-4.6473 -3.753066,0.18969 -6.435763,1.44974 -0.311626,0.14904 -0.609704,0.14904 -0.596155,0 -0.989075,-0.46066 -0.365822,-0.42002 -0.365822,-0.97553 0,-0.74519 0.718095,-1.19231 2.926579,-1.78846 10.093987,-1.78846 0.582606,0 0.975526,0.39292 0.39292,0.39292 0.39292,0.98907 0,0.88069 -0.745193,1.26006 z m 14.944522,-3.88856 -4.687949,10.13463 q -1.734269,3.69887 -2.655599,6.19189 l -0.894233,2.6285 q -0.352273,0.97552 -1.219407,0.97552 -0.569057,0 -0.989076,-0.37937 -0.406469,-0.36582 -0.406469,-0.92133 0,-1.3549 2.926579,-7.84485 l -4.850533,-9.33525 -0.609704,-0.98907 q -0.365822,-0.62326 -0.365822,-1.04327 0,-0.55551 0.420018,-0.97553 0.433567,-0.42002 0.961977,-0.42002 0.623253,0 0.961977,0.47422 2.303326,3.19755 4.945376,9.10491 l 2.005248,-4.6744 q 1.083918,-2.42527 2.086542,-4.17308 0.433565,-0.75875 1.138115,-0.75875 0.55551,0 0.97553,0.39292 0.43356,0.39292 0.43356,0.93488 0,0.29808 -0.17613,0.67745 z m 8.95587,12.70894 q -3.06207,0 -4.95893,-1.53103 -2.07299,-1.69363 -2.07299,-4.74215 0,-3.52273 1.70717,-5.90735 1.85621,-2.6014 4.95893,-2.6014 2.24913,0 3.67177,0.75874 1.74782,0.93488 1.74782,2.87238 0,1.3549 -1.53104,2.46592 -0.67745,0.48776 -2.87238,1.51748 l -5.17571,2.45237 q 0.75874,1.12456 1.88331,1.69362 1.13811,0.56906 2.64205,0.56906 0.93488,0 2.19493,-0.35228 1.59878,-0.44711 2.05945,-1.16521 0.46066,-0.73164 0.98907,-0.73164 0.47422,0 0.84004,0.36582 0.37937,0.35227 0.37937,0.82649 0,1.50393 -2.42527,2.58785 -2.07299,0.92133 -4.03759,0.92133 z m -0.36582,-12.34312 q -1.65298,0 -2.75045,1.28716 -1.09746,1.2736 -1.63942,3.84791 l 4.15953,-1.97816 q 2.45237,-1.19231 3.49564,-2.07299 -1.16521,-1.08392 -3.2653,-1.08392 z m 12.68184,1.07037 -0.20324,6.73384 q 0,1.07037 -0.10839,3.14337 -0.13549,1.35489 -1.3278,1.35489 -1.3278,0 -1.3278,-1.38199 0,-1.63943 0.14904,-4.91828 0.14904,-3.2924 0.14904,-4.93183 0,-2.14074 0.0677,-4.89118 0.0678,-2.76399 0.0678,-4.90473 0,-1.35489 1.3278,-1.35489 1.34135,0 1.34135,1.35489 0,2.14074 -0.0678,4.90473 -0.0677,2.75044 -0.0677,4.89118 z m 16.63814,-1.31425 q -0.16259,1.9917 -0.16259,3.9834 0,4.51181 0.42002,6.81514 0.0271,0.18968 0.0271,0.31162 0,0.54196 -0.37938,0.89423 -0.37937,0.35228 -0.88068,0.35228 -0.84003,0 -1.23296,-1.21941 -0.97552,0.7181 -2.03234,1.08392 -1.04327,0.36582 -2.18139,0.36582 -2.80463,0 -4.64729,-1.86976 -1.89686,-1.9104 -1.89686,-4.90473 0,-3.61757 1.9104,-5.79896 1.92396,-2.18138 4.98603,-2.18138 1.57168,0 2.42526,0.48776 l 1.27361,0.93488 q 0.18968,-5.70412 0.44711,-7.68227 0.17614,-1.20586 1.23296,-1.20586 1.23296,0 1.23296,1.31425 0,1.88331 -0.54196,8.31907 z m -6.01575,0.35228 q -2.27622,0 -3.41434,1.35489 -1.13811,1.34135 -1.13811,4.05115 0,1.74781 1.23295,3.00787 1.24651,1.26005 2.91303,1.26005 1.13812,0 1.92396,-0.42001 0.46066,-0.24389 1.50393,-1.12457 0.20324,-0.17614 0.39292,-0.42002 l -0.0406,-2.34397 0.0135,-1.57168 0.0271,-1.59878 q -0.51486,-1.09747 -1.36844,-1.63943 -0.85359,-0.5555 -2.0459,-0.5555 z m 21.17705,12.4515 q -0.96197,0 -1.26005,-1.02972 -0.31163,-1.11101 -0.56906,-3.15691 -0.24388,-1.9646 -0.24388,-3.22466 0,-0.35227 0.0271,-1.07036 0.0406,-0.7181 0.0406,-1.07037 0,-2.54721 -1.2736,-2.54721 -1.72072,0 -3.07562,1.55813 -0.69099,0.79939 -1.89685,3.04852 0,5.16216 -0.43357,6.11059 -0.37937,0.84003 -1.17876,0.84003 -0.55551,0 -0.97553,-0.37937 -0.42001,-0.37937 -0.42001,-0.92133 0,-0.18968 0.12194,-0.59615 0.10839,-0.33873 0.14903,-1.97815 l 0.0406,-2.00525 0.0406,-9.9585 q 0.0948,-1.68007 0.0948,-2.26268 0,-0.69099 -0.13549,-1.3007 -0.12194,-0.62325 -0.12194,-1.28715 0,-0.56906 0.39292,-0.93488 0.39292,-0.37937 0.96198,-0.37937 1.11101,0 1.3007,1.19231 0.21678,1.31425 0.21678,2.37107 0,1.42264 -0.0948,2.96722 -0.0813,1.47684 -0.0677,2.96723 l 0.0135,1.19231 q 1.11102,-1.49039 2.37108,-2.22203 1.2736,-0.7452 2.69624,-0.7452 2.24913,0 3.08917,1.46329 0.59615,1.02973 0.67745,3.46854 l 0.10839,2.58786 0.27098,2.81818 q 0.18968,1.58523 0.46066,2.79109 0.0542,0.23033 0.0542,0.39292 0,0.55551 -0.40647,0.92133 -0.40647,0.37937 -0.97553,0.37937 z m 9.76881,-0.0406 q -2.27623,0 -3.91565,-1.68008 -1.82911,-1.86976 -1.92396,-5.02667 -0.0813,-3.06206 1.54459,-5.39249 1.89685,-2.75044 5.2841,-2.75044 2.70979,0 4.10534,2.47946 1.11101,2.00525 1.07037,4.82344 -0.0406,3.00787 -1.57169,5.13506 -1.73426,2.41172 -4.5931,2.41172 z m 0.81294,-12.09924 q -1.9917,-0.0135 -3.10272,1.89686 -0.88068,1.53103 -0.88068,3.49563 0,1.96461 1.07037,3.06207 0.89423,0.90778 2.10009,0.90778 1.4091,0 2.42527,-1.02972 1.15166,-1.13811 1.21941,-3.07562 0.18968,-5.24345 -2.83174,-5.257 z m 19.75441,3.38725 q 0,0.97552 0.0135,2.92657 0.0135,1.95106 0.0135,2.92658 0,0.29808 0.0406,0.90778 0.0542,0.60971 0.0542,0.90779 0,0.5826 -0.39292,0.94842 -0.39292,0.37937 -0.96198,0.37937 -1.04327,0 -1.3278,-1.28715 -1.69362,0.88069 -3.9021,0.88069 -1.77492,0 -2.94013,-0.78584 -1.28715,-0.86714 -1.53104,-2.53366 -0.52841,-3.59048 -0.52841,-6.39512 0,-1.85621 0.40647,-4.22728 0.18969,-1.17876 1.28716,-1.17876 0.5826,0 0.97552,0.37937 0.39292,0.36582 0.39292,0.94843 0,0.62325 -0.20323,1.9917 -0.18969,1.36844 -0.18969,2.08654 0,2.26268 0.14904,3.87501 0.14904,1.61233 0.44712,2.58785 0.44711,0.24388 0.88068,0.37937 0.43357,0.12194 0.85359,0.12194 1.81556,0 3.83436,-0.5826 l -0.0136,-2.75044 -0.0271,-2.62851 q 0,-2.92657 0.25743,-5.08086 0.14904,-1.24651 1.31425,-1.24651 0.58261,0 0.97553,0.37937 0.39292,0.37938 0.36582,0.94843 z m 13.76575,8.87457 q -1.16521,0 -1.31425,-1.2736 l -0.37937,-2.96723 q -0.18968,-1.58523 -0.18968,-2.96722 0,-0.37937 0.0406,-1.28715 0.0542,-0.90778 0.0542,-1.28716 0,-2.92657 -1.08392,-2.92657 -1.51748,0 -2.89948,1.80201 -1.24651,1.63943 -1.95105,4.14599 -0.0271,0.52841 -0.12194,1.3278 -0.0813,0.67744 -0.0813,1.31425 0,0.40646 0.0813,1.2194 0.0813,0.81294 0.0813,1.21941 0,0.60971 -0.37937,0.98908 -0.36582,0.37937 -0.94843,0.37937 -0.59615,0 -0.96198,-0.37937 -0.36582,-0.37937 -0.36582,-0.98908 0,-0.40647 -0.0948,-1.21941 -0.0813,-0.81294 -0.0813,-1.2194 0,-1.39555 0.18968,-3.86146 0.20324,-2.47946 0.20324,-3.87501 0,-0.43357 -0.0542,-1.28715 -0.0406,-0.85359 -0.0406,-1.28715 0,-0.58261 0.37937,-0.94843 0.39292,-0.37937 0.96198,-0.37937 1.24651,0 1.36845,1.76136 l 0.0406,1.58523 q 2.27623,-3.03497 4.6744,-3.03497 2.16784,0 3.02142,1.91041 0.58261,1.2736 0.6368,3.76661 v 1.36845 l -0.0135,1.26005 q 0,1.12457 0.28452,2.91303 0.29808,1.77492 0.29808,2.88594 0,0.59615 -0.39292,0.96197 -0.37937,0.37937 -0.96198,0.37937 z m 15.28324,-6.80158 -0.31162,4.55245 q -0.0813,2.7098 -0.55551,4.43052 -0.6097,2.19493 -1.95105,3.2382 -1.62588,1.26006 -4.7015,1.26006 -1.80201,0 -3.02142,-0.24388 -1.70717,-0.33873 -1.70717,-1.4091 0,-1.20586 1.17876,-1.20586 0.48776,0 1.62588,0.23034 1.13811,0.24388 2.52011,0.21678 2.6014,-0.0406 3.59048,-2.52011 0.65035,-1.65297 0.69099,-5.08086 -0.73164,1.35489 -1.74781,2.03234 -1.00263,0.67745 -2.30333,0.67745 -2.45236,0 -3.99695,-1.66652 -1.53103,-1.68008 -1.53103,-4.34922 0,-3.65823 2.10009,-5.89381 2.16784,-2.30332 5.90735,-2.30332 1.26006,0 2.11364,0.32517 0.85359,0.32518 1.3007,0.97553 1.44975,0.0406 1.44975,1.61233 0,0.96197 -0.28453,2.5743 -0.31163,1.86976 -0.36583,2.54721 z m -4.34922,-5.86671 q -2.5743,0 -3.9834,1.77492 -1.26005,1.59878 -1.26005,4.06469 0,1.9646 0.74519,2.95368 0.7452,0.98907 2.23558,0.98907 1.36845,0 2.6556,-1.54458 1.16522,-1.42264 1.3278,-2.81819 0.28453,-1.46329 0.60971,-4.5931 -0.54196,-0.42002 -1.12457,-0.62325 -0.5826,-0.20324 -1.20586,-0.20324 z"
         id="path65" /><path
         style="font-family:'Comic Sans MS';-inkscape-font-specification:'Comic Sans MS';fill:#ffffff;fill-opacity:1"
         d="m 86.62643,261.37311 q -0.514861,0 -0.961977,-0.43357 -4.484711,-4.43051 -9.972046,-5.96155 l 0.108392,2.6556 0.06775,2.66915 q 0,0.59615 -0.39292,0.98907 -0.379372,0.40647 -0.961978,0.40647 -0.582606,0 -0.975526,-0.40647 -0.379371,-0.39292 -0.379371,-0.98907 0,-1.07037 -0.108392,-3.18401 -0.09484,-2.12719 -0.09484,-3.19756 0,-1.2465 0.27098,-3.71242 0.270979,-2.46591 0.270979,-3.69887 0,-0.691 -0.135489,-2.04589 -0.121941,-1.3549 -0.121941,-2.0459 0,-0.77229 0.433567,-1.3549 0.514861,-0.71809 1.422642,-0.65035 l 3.265303,0.25743 q 1.85621,0.23034 3.129813,0.90779 5.487335,2.91302 5.487335,7.11321 0,2.05944 -1.869758,3.64467 -1.503936,1.2736 -3.753066,1.9375 4.213731,2.26268 6.300273,4.76924 0.352273,0.43357 0.352273,0.92133 0,0.56906 -0.420018,0.98908 -0.406469,0.42002 -0.961977,0.42002 z m -8.630697,-17.91175 -2.005248,-0.16259 0.135489,1.63943 q 0.09484,1.00263 0.09484,1.63943 0,1.08391 -0.176136,2.69624 l -0.284529,2.69625 q 0.189686,0 0.582606,0.0135 0.406469,0.0136 0.609704,0.0136 3.454988,0 5.175708,-0.92133 0.758743,-0.42002 1.409094,-1.09747 0.718095,-0.75874 0.718095,-1.28715 0,-1.88331 -2.140738,-3.50919 -1.964601,-1.49038 -4.118888,-1.72072 z m 19.022761,18.38596 q -3.062069,0 -4.958925,-1.53103 -2.072993,-1.69362 -2.072993,-4.74214 0,-3.52274 1.70717,-5.90736 1.85621,-2.6014 4.958925,-2.6014 2.24913,0 3.671769,0.75874 1.74782,0.93488 1.74782,2.87239 0,1.35489 -1.53103,2.46591 -0.677452,0.48776 -2.872386,1.51748 l -5.175708,2.45237 q 0.758743,1.12456 1.883307,1.69362 1.138114,0.56906 2.642051,0.56906 0.934879,0 2.194933,-0.35228 1.598783,-0.44711 2.059443,-1.16521 0.46067,-0.73164 0.98908,-0.73164 0.47421,0 0.84003,0.36582 0.37937,0.35227 0.37937,0.82649 0,1.50393 -2.42526,2.58785 -2.072995,0.92133 -4.037596,0.92133 z m -0.365823,-12.34311 q -1.652975,0 -2.750442,1.28715 -1.097467,1.2736 -1.639426,3.84791 l 4.159536,-1.97815 q 2.452364,-1.19231 3.495635,-2.073 -1.165212,-1.08391 -3.265303,-1.08391 z m 18.385959,1.28715 q -0.74519,0 -1.04327,-0.50131 -0.20324,-0.35228 -0.35227,-1.46329 -1.01618,0.25743 -3.12982,0.94842 -2.18138,0.86714 -2.19493,2.14074 0.40647,0.14904 0.79939,0.21679 3.11626,0.5555 4.63375,1.53103 2.20848,1.42264 2.20848,4.11889 0,2.20848 -1.9104,3.33305 -1.58523,0.92133 -4.0105,0.92133 -1.77492,0 -3.38725,-0.59616 -2.08654,-0.75874 -2.08654,-2.11364 0,-0.54196 0.42002,-0.94843 0.43357,-0.40647 0.97553,-0.40647 0.42002,0 1.08392,0.65036 0.32517,0.31162 1.46328,0.51486 0.90779,0.16258 1.53104,0.16258 1.13811,0 2.00525,-0.27098 1.26005,-0.39292 1.26005,-1.2465 0,-1.84266 -2.5743,-2.49301 l -1.4091,-0.31163 q -1.80201,-0.39292 -2.56075,-0.92133 -1.09747,-0.75874 -1.09747,-2.28978 0,-2.83173 2.66915,-4.03759 0.81294,-0.36582 2.6014,-0.86713 1.78847,-0.51487 2.56076,-0.86714 0.55551,-0.24388 1.20586,-0.24388 0.5826,0 0.94842,0.37937 0.37938,0.37937 0.37938,0.98908 0,0.39292 0.16258,1.15166 0.17614,0.75874 0.17614,1.15166 0,0.60971 -0.37937,0.98908 -0.36582,0.37937 -0.94843,0.37937 z m 13.42703,-1.11102 q -0.28452,0 -0.67744,-0.0271 -0.37938,-0.0271 -0.6639,-0.0271 -0.31163,0 -1.84267,0.20323 l 0.25744,8.00744 0.0135,0.59616 0.0136,0.691 q 0.0542,2.96722 -1.42264,2.96722 -0.54196,0 -0.94843,-0.35227 -0.39292,-0.35227 -0.39292,-0.88068 0,-0.51486 0.0406,-1.54459 0.0406,-1.02972 0.0406,-1.54458 l -0.27098,-7.9126 q -0.98908,-0.0406 -3.00788,-0.23033 -1.20585,-0.16259 -1.20585,-1.34135 0,-0.59616 0.36582,-0.98908 0.36582,-0.39292 0.93488,-0.39292 l 2.84528,0.23033 q 0,-0.69099 -0.0677,-1.84266 -0.0542,-1.16521 -0.0542,-1.68007 0,-0.56906 0.39292,-0.93488 0.39292,-0.37937 0.96198,-0.37937 1.21941,0 1.42264,1.9917 0.0406,0.50131 0.0406,1.20586 l -0.0271,0.78584 -0.0135,0.84004 q 1.68007,-0.21679 1.92396,-0.21679 1.40909,0 1.84266,0.13549 0.82648,0.27098 0.82648,1.27361 0,0.59615 -0.37937,0.98907 -0.36582,0.37937 -0.94843,0.37937 z m 14.59225,12.43796 q -0.25743,0 -0.93488,-0.59615 -0.6097,-0.55551 -0.90778,-0.98908 -1.3007,0.70455 -2.28978,1.05682 -0.98907,0.36582 -1.65297,0.36582 -3.17046,0 -4.6202,-1.78846 -1.36845,-1.68007 -1.36845,-5.14861 0,-3.27885 2.24913,-5.60928 2.26268,-2.33042 5.39249,-2.33042 1.17876,0 2.64205,0.6097 1.84266,0.75875 1.84266,1.82911 0,0.36583 -0.27098,0.65036 -0.13549,0.51486 -0.21678,1.69362 -0.0677,1.17876 -0.0813,3.02142 -0.0135,1.68007 0.23033,2.6556 0.13549,0.59615 0.85358,2.38462 0.0949,0.24388 0.31163,0.71809 l 0.0813,0.23034 q 0,0.54195 -0.37937,0.89423 -0.37937,0.35227 -0.88068,0.35227 z m -2.81819,-9.41654 q 0,-0.5826 0.0677,-1.26005 0.0813,-0.691 0.23033,-1.46329 -0.50131,-0.25743 -0.86713,-0.37937 -0.35228,-0.12194 -0.56906,-0.12194 -2.10009,0 -3.63113,1.72072 -1.51748,1.70717 -1.51748,3.94275 0,2.22203 0.78584,3.33305 0.78584,1.11101 2.35752,1.11101 1.3007,0 2.20848,-0.47421 0.48777,-0.25743 1.36845,-1.02972 -0.43357,-3.59048 -0.43357,-5.37895 z m 17.49173,0.60971 q 0,0.97552 0.0135,2.92658 0.0136,1.95105 0.0136,2.92657 0,0.29808 0.0406,0.90779 0.0542,0.6097 0.0542,0.90778 0,0.5826 -0.39292,0.94843 -0.39292,0.37937 -0.96198,0.37937 -1.04327,0 -1.3278,-1.28716 -1.69362,0.88069 -3.90211,0.88069 -1.77491,0 -2.94012,-0.78584 -1.28716,-0.86714 -1.53104,-2.53366 -0.52841,-3.59048 -0.52841,-6.39512 0,-1.85621 0.40647,-4.22728 0.18969,-1.17876 1.28715,-1.17876 0.58261,0 0.97553,0.37937 0.39292,0.36583 0.39292,0.94843 0,0.62325 -0.20323,1.9917 -0.18969,1.36845 -0.18969,2.08654 0,2.26268 0.14904,3.87501 0.14904,1.61233 0.44712,2.58785 0.44711,0.24389 0.88068,0.37937 0.43357,0.12195 0.85358,0.12195 1.81557,0 3.83436,-0.58261 l -0.0135,-2.75044 -0.0271,-2.6285 q 0,-2.92658 0.25743,-5.08087 0.14904,-1.2465 1.31425,-1.2465 0.5826,0 0.97552,0.37937 0.39293,0.37937 0.36583,0.94842 z m 13.9148,-2.10009 q -0.0948,1.69362 -1.3549,1.69362 -1.16521,0 -1.16521,-1.34135 0,-0.25743 -0.0406,-0.94843 l -0.0406,-1.13811 q -2.14074,0.25743 -3.42789,1.20586 -1.20586,0.88068 -2.00525,2.6556 l 0.0271,7.42483 q 0,1.36845 -1.34134,1.36845 -1.19231,0 -1.19231,-1.36845 v -9.51138 q 0,-0.44711 0.0271,-1.34135 0.0406,-0.89423 0.0406,-1.34134 0,-1.36845 1.19231,-1.36845 1.3278,0 1.34135,2.24913 2.6014,-2.50656 5.77186,-2.50656 1.09747,0 1.63943,0.82649 0.54196,0.82648 0.54196,2.49301 0,0.70454 -0.0135,0.94843 z m 13.37284,10.90692 q -0.25743,0 -0.93488,-0.59615 -0.60971,-0.55551 -0.90778,-0.98908 -1.3007,0.70455 -2.28978,1.05682 -0.98908,0.36582 -1.65297,0.36582 -3.17046,0 -4.62021,-1.78846 -1.36844,-1.68007 -1.36844,-5.14861 0,-3.27885 2.24913,-5.60928 2.26268,-2.33042 5.39249,-2.33042 1.17876,0 2.64205,0.6097 1.84266,0.75875 1.84266,1.82911 0,0.36583 -0.27098,0.65036 -0.13549,0.51486 -0.21678,1.69362 -0.0677,1.17876 -0.0813,3.02142 -0.0136,1.68007 0.23034,2.6556 0.13549,0.59615 0.85358,2.38462 0.0948,0.24388 0.31163,0.71809 l 0.0813,0.23034 q 0,0.54195 -0.37937,0.89423 -0.37937,0.35227 -0.88068,0.35227 z m -2.81819,-9.41654 q 0,-0.5826 0.0678,-1.26005 0.0813,-0.691 0.23033,-1.46329 -0.50131,-0.25743 -0.86714,-0.37937 -0.35227,-0.12194 -0.56905,-0.12194 -2.10009,0 -3.63113,1.72072 -1.51748,1.70717 -1.51748,3.94275 0,2.22203 0.78584,3.33305 0.78584,1.11101 2.35752,1.11101 1.3007,0 2.20848,-0.47421 0.48776,-0.25743 1.36845,-1.02972 -0.43357,-3.59048 -0.43357,-5.37895 z m 16.82783,9.48429 q -1.16521,0 -1.31425,-1.27361 l -0.37937,-2.96722 q -0.18969,-1.58523 -0.18969,-2.96723 0,-0.37937 0.0406,-1.28715 0.0542,-0.90778 0.0542,-1.28715 0,-2.92658 -1.08392,-2.92658 -1.51748,0 -2.89948,1.80201 -1.2465,1.63943 -1.95105,4.14599 -0.0271,0.52841 -0.12194,1.3278 -0.0813,0.67745 -0.0813,1.31425 0,0.40647 0.0813,1.21941 0.0813,0.81293 0.0813,1.2194 0,0.60971 -0.37937,0.98908 -0.36582,0.37937 -0.94842,0.37937 -0.59616,0 -0.96198,-0.37937 -0.36582,-0.37937 -0.36582,-0.98908 0,-0.40647 -0.0948,-1.2194 -0.0813,-0.81294 -0.0813,-1.21941 0,-1.39555 0.18968,-3.86146 0.20324,-2.47946 0.20324,-3.87501 0,-0.43356 -0.0542,-1.28715 -0.0406,-0.85359 -0.0406,-1.28715 0,-0.58261 0.37937,-0.94843 0.39292,-0.37937 0.96197,-0.37937 1.24651,0 1.36845,1.76136 l 0.0406,1.58523 q 2.27623,-3.03497 4.67439,-3.03497 2.16784,0 3.02143,1.91041 0.5826,1.2736 0.6368,3.76662 v 1.36844 l -0.0136,1.26006 q 0,1.12456 0.28453,2.91303 0.29807,1.77491 0.29807,2.88593 0,0.59615 -0.39292,0.96197 -0.37937,0.37938 -0.96197,0.37938 z m 13.19669,-12.50571 q -0.28453,0 -0.67745,-0.0271 -0.37937,-0.0271 -0.6639,-0.0271 -0.31163,0 -1.84266,0.20323 l 0.25743,8.00744 0.0135,0.59616 0.0136,0.691 q 0.0542,2.96722 -1.42264,2.96722 -0.54196,0 -0.94843,-0.35227 -0.39292,-0.35227 -0.39292,-0.88068 0,-0.51486 0.0406,-1.54459 0.0406,-1.02972 0.0406,-1.54458 l -0.27098,-7.9126 q -0.98907,-0.0406 -3.00787,-0.23033 -1.20586,-0.16259 -1.20586,-1.34135 0,-0.59616 0.36582,-0.98908 0.36582,-0.39292 0.93488,-0.39292 l 2.84529,0.23033 q 0,-0.69099 -0.0677,-1.84266 -0.0542,-1.16521 -0.0542,-1.68007 0,-0.56906 0.39292,-0.93488 0.39292,-0.37937 0.96197,-0.37937 1.21941,0 1.42265,1.9917 0.0406,0.50131 0.0406,1.20586 l -0.0271,0.78584 -0.0135,0.84004 q 1.68007,-0.21679 1.92395,-0.21679 1.40909,0 1.84266,0.13549 0.82649,0.27098 0.82649,1.27361 0,0.59615 -0.37937,0.98907 -0.36583,0.37937 -0.94843,0.37937 z"
         id="path66" /></g></g></svg>
